<svg width="981" height="1024" viewBox="0 0 981 1024" fill="none" xmlns="http://www.w3.org/2000/svg">
<path d="M17.1906 1770.14C15.5488 1763.71 13.4019 1755.32 14.3491 1746.23C31.272 1760.87 54.3832 1759.99 59.7506 1759.54C60.7609 1759.67 61.0135 1759.42 61.0135 1759.42C61.0135 1759.42 60.5084 1759.42 59.7506 1759.54C57.7931 1759.29 52.8677 1757.4 41.0595 1748.56C27.1044 1738.15 24.3892 1726.61 24.5155 1714.62C24.5155 1711.4 24.7681 1708.12 25.0837 1704.84C25.7784 1704.46 26.5361 1704.14 27.4201 1703.83C36.5762 1700.54 53.3729 1701.05 68.9698 1696.25C49.8998 1686.28 22.4316 1666.28 14.0964 1630.69C7.27673 1595.29 -0.932068 1556.23 -8.32007 1530.49C-24.8641 1472.62 -28.0846 1436.97 -28.0846 1436.97C-28.0846 1436.97 5.88757 1495.09 25.1469 1512.25C25.1469 1512.25 -1.68988 1442.84 -19.2443 1390.47C-29.6002 1359.42 -24.5485 1328.88 -24.9905 1304.27C-25.6219 1272.47 -34.4623 1258.52 -34.4623 1258.52C-34.4623 1258.52 -2.3844 1257.7 6.77167 1257.26C16.496 1256.76 37.9023 1252.72 53.436 1249.5C14.6648 1247.48 -34.6517 1239.97 -63.1934 1227.41C-69.0028 1179.46 -64.6459 1161.54 -64.6459 1161.54C-42.6081 1199.02 53.3729 1211.01 53.3729 1211.01C53.3729 1211.01 48.5107 1188.73 8.03455 1136.42C-51.7009 1059.19 -42.5449 946.173 -42.5449 946.173C-13.5612 1007.82 26.9781 1028.27 26.9781 1028.27C-28.7792 957.91 -23.475 881.495 -23.475 881.495C-23.475 881.495 -11.9825 898.974 28.6199 936.582C69.2855 974.19 88.3554 990.344 88.3554 990.344C88.3554 990.344 52.1731 955.386 28.6199 888.373C2.09882 812.904 12.2653 780.66 12.2653 780.66C12.2653 780.66 23.3788 789.304 64.0444 794.731C171.455 809.118 216.477 797.508 267.12 794.731C206.311 793.154 108.625 786.528 72.0008 767.471C20.6636 740.78 -3.14215 722.985 -6.74146 706.958C-10.2776 690.93 19.969 651.618 19.969 651.618C36.0079 692.381 48.4475 689.605 48.4475 689.605C28.8725 624.169 59.1191 536.27 59.1191 536.27C55.5829 627.261 181.937 755.356 181.937 755.356C165.456 724.184 147.396 662.913 132.557 599.56C150.996 615.461 167.161 621.898 167.161 621.898C167.161 621.898 86.3348 499.04 128.516 376.372C128.705 375.741 128.895 375.173 129.084 374.542C129.084 374.542 116.202 380.411 103.384 395.555C100.29 394.482 88.1028 390.317 83.6826 387.604C78.5679 384.512 78.5679 373.28 76.5472 351.826C74.5266 330.372 84.5667 302.102 91.3233 286.895C101.49 263.8 122.896 267.712 122.896 267.712C114.687 284.434 120.496 323.178 120.496 323.178C123.591 309.864 151.185 275.158 159.394 266.955C167.603 258.752 182.947 259.825 182.947 259.825C182.947 259.825 191.156 275.158 202.396 289.482C213.636 303.806 234.095 333.464 242.304 339.584C242.304 339.584 250.828 374.542 278.044 390.317C281.643 392.4 285.495 394.924 289.41 397.574C280.633 384.575 270.467 368.485 264.341 354.918C251.649 327.027 184.842 235.783 171.328 217.926C157.815 200.068 153.585 191.802 140.071 154.825C126.558 117.848 152.511 -12.077 151.627 -28.4832C151.374 -33.2158 151.627 -37.1912 152.069 -40.7879C145.123 -32.9634 137.798 -24.0031 128.958 -20.4694C119.612 -16.6834 112.477 -15.6738 110.772 -13.2759C109.067 -10.9412 98.0167 4.96022 98.0167 4.96022C98.0167 4.96022 49.0158 138.166 51.0996 167.697C53.1203 197.229 46.9952 220.639 46.9952 220.639C21.4213 229.473 10.1815 257.806 10.1815 257.806C10.1815 257.806 22.4316 248.593 40.8701 240.327C59.3085 232.06 67.4543 238.434 75.6631 242.472C75.6631 242.472 67.6437 254.84 67.1386 290.681C66.6334 325.639 76.6735 351.889 76.6735 351.889C76.6735 351.889 -3.14221 317.12 -26.6954 297.685C-50.2487 278.25 -55.3634 262.917 -50.2485 240.327C-45.1338 217.736 -41.8503 193.443 -41.8503 193.443C-33.1363 208.271 -22.2753 213.761 -22.2753 213.761C-33.3257 182.589 -22.591 147.063 -22.591 147.063C-20.5703 170.221 2.98291 195.714 2.98291 195.714C2.98291 195.714 -5.22601 136.147 2.98291 99.3591C11.1918 62.5713 52.1731 -30.187 52.1731 -30.187L80.5254 -8.35406C73.0111 -18.1978 67.7068 -27.5367 61.5818 -34.0361C53.3729 -42.7441 54.0675 -47.4766 58.0457 -50.3162C62.0238 -53.1557 69.0961 -48.1076 75.2212 -41.482C75.2212 -41.482 77.4944 -48.991 73.011 -56.6894C69.5381 -62.747 72.3797 -75.0517 73.7689 -80.0367L45.2272 -85.1479C40.9964 -85.9051 38.218 -89.9435 38.9126 -94.1713C39.6703 -98.399 43.7116 -101.175 47.9424 -100.481L98.0798 -91.5211C98.0798 -91.8366 98.0166 -92.2152 97.9535 -92.4676C97.2589 -96.506 93.2808 -98.9039 93.2808 -98.9039C93.2808 -98.9039 95.996 -110.704 101.679 -105.025C107.362 -99.3456 110.961 -89.2494 110.961 -89.2494C110.961 -89.2494 119.675 -97.3894 120.686 -109C120.686 -109 132.052 -99.8504 127.506 -86.2837C127.506 -86.2837 136.283 -92.5938 138.619 -106.16C138.619 -106.16 157.058 -100.292 153.269 -81.6773C153.269 -81.6773 159.204 -88.4922 161.793 -98.5884C161.793 -98.5884 164.382 -100.544 165.708 -84.012C165.835 -82.4976 165.835 -80.9832 165.835 -79.4688L168.424 -79.0271C174.107 -90.9531 180.421 -102.627 187.115 -95.4964C196.65 -85.4003 198.418 -74.8624 198.418 -74.8624C204.985 -89.2494 203.911 -98.7777 203.911 -98.7777C211.805 -88.997 214.646 -70.6978 214.646 -70.6978H214.772C215.404 -70.6978 218.245 -70.9502 223.044 -79.5319C226.707 -86.0944 223.044 -95.7488 223.044 -95.7488C223.044 -95.7488 227.086 -94.2344 233.527 -86.4099C239.967 -78.5223 241.925 -65.839 241.925 -65.839C250.765 -77.7651 248.997 -86.5361 248.997 -86.5361C248.997 -86.5361 257.017 -88.6815 262.384 -84.3906C267.688 -80.0998 266.804 -74.2945 263.963 -61.9267L287.958 -57.6359C289.979 -57.2573 291.683 -56.1845 292.82 -54.607C344.662 -45.6467 806.507 33.7973 865.233 43.9566C865.233 43.9566 865.359 43.9566 865.422 43.9566C868.832 44.7769 878.051 45.9127 884.366 46.7961C884.492 46.7961 917.58 50.7715 937.345 53.6741C956.793 56.5137 957.993 60.6783 960.33 67.4932C967.465 88.632 985.335 115.892 980.031 134.128C978.957 140.375 968.16 147.758 955.973 150.849C945.554 154.636 938.986 153.247 930.525 147.442C920.737 136.652 928.82 100.558 922.253 79.23C917.517 68.8183 882.787 62.8869 882.787 62.8869L883.103 59.6687C878.43 58.6591 872.621 57.2709 868.011 56.3875C867.001 56.1982 865.738 56.0089 864.222 55.7565C863.907 55.7565 863.591 55.6302 863.338 55.6302C805.434 45.5972 343.273 -34.0361 290.989 -43.1227C289.347 -42.0499 287.39 -41.5451 285.306 -41.9237L257.332 -46.9718C251.586 -37.5067 243.756 -28.0415 239.21 -23.8138C232.201 -17.2513 211.363 -10.2471 211.363 -10.2471L202.27 -17.693C193.177 -25.1389 172.402 -34.4147 172.402 -34.4147C172.402 -34.4147 187.999 -13.97 196.839 0.290756C205.679 14.5516 188.315 83.4577 206.942 108.824C225.57 134.191 226.644 159.431 235.926 187.069C245.208 214.771 281.012 266.64 281.012 266.64C268.446 232.376 265.289 206 265.289 206C283.601 229.663 294.904 246.195 306.333 268.343C316.815 288.536 342.263 342.739 337.969 366.528C337.464 369.179 336.769 371.829 335.948 374.479C338.79 371.261 341.126 367.98 342.579 364.698C348.956 350.501 346.557 334.599 344.473 313.65C344.473 313.65 354.008 336.366 364.806 359.65C375.604 382.935 397.957 398.584 397.957 398.584C397.957 398.584 399.283 393.977 390.317 367.096C381.35 340.215 346.746 295.982 346.746 295.982C338.474 284.56 338.474 283.614 335.948 263.358C334.749 253.956 336.39 237.487 336.39 237.487C336.39 237.487 343.905 250.36 352.114 260.456C349.714 238.055 350.914 208.208 350.914 208.208C350.914 208.208 357.544 239.506 369.857 258.5C378.761 272.256 395.052 288.346 416.838 284.939C418.984 284.623 420.942 284.371 422.773 284.308C423.026 283.929 423.341 283.614 423.847 283.424C427.951 281.847 438.938 287.968 439.696 281.342C440.454 274.78 436.918 269.29 437.865 265.946C438.875 262.664 451.631 266.892 452.515 265.125C453.399 263.358 454.03 260.834 450.683 258.626C447.337 256.417 429.972 251.369 425.741 246.321C418.29 237.55 424.668 235.152 424.668 235.152C424.668 235.152 424.478 239.254 427.888 241.652C431.424 244.176 439.949 245.69 445.442 247.394C450.936 249.098 454.914 250.612 454.662 246.132C454.409 241.652 451.883 235.279 451.315 234.458C450.747 233.638 454.093 233.133 459.903 236.477C465.712 239.822 479.541 241.967 480.109 238.56C480.741 235.152 481.372 220.892 481.751 211.805C482.067 202.718 482.067 190.666 488.95 187.89C495.769 185.113 510.672 194.389 510.672 194.389C512.629 188.395 511.998 183.536 510.419 179.75C488.065 174.891 455.924 160.188 441.78 139.05C426.436 138.545 415.133 135.39 408.502 132.992C408.502 132.992 408.629 132.992 408.692 132.992C414.943 134.885 388.548 144.035 386.465 152.932C384.444 161.829 384.886 176.342 380.466 182.652C379.834 186.438 361.27 204.485 360.764 202.214C360.512 201.141 360.954 200.068 361.27 198.995C362.091 196.282 362.027 193.38 361.206 190.666C361.143 190.351 360.954 190.098 360.828 189.846C360.449 189.341 360.133 188.395 359.628 186.943C359.186 186.06 358.744 185.176 358.428 184.23C358.302 183.914 358.239 183.536 358.112 183.22C357.86 182.652 357.607 182.084 357.291 181.453C353.629 173.944 354.071 168.77 358.87 167.634C360.196 167.319 360.322 165.804 361.396 165.552C362.848 165.237 364.048 165.3 365.058 165.552C363.669 162.965 360.007 157.791 354.134 161.135C351.293 162.776 350.851 167.887 350.914 171.168C350.914 174.891 352.24 179.876 352.998 184.23C354.134 188.836 355.271 192.307 355.271 192.307C352.619 189.657 346.809 176.847 345.673 169.843C344.599 162.839 346.62 151.607 353.755 150.849C354.892 150.723 356.155 150.85 357.418 151.165V147.568C357.418 147.568 358.176 144.729 359.817 140.122C367.016 123.022 375.098 114.125 438.496 93.6801C438.496 93.6801 410.649 88.001 387.728 91.5347C395.431 83.2684 404.651 76.4535 415.575 73.2985C442.411 65.5371 477.331 61.12 510.419 85.2877C525.953 96.6458 533.656 115.134 536.877 125.041C519.259 112.737 487.245 111.033 460.787 118.794C435.339 126.303 404.651 129.648 401.998 129.9C401.998 129.9 402.062 129.9 402.125 129.963C405.977 130.531 437.486 134.633 458.829 129.963C481.625 124.915 513.576 118.668 537.761 141.132C567.629 168.959 558.22 188.016 553.484 204.99C550.011 209.407 531.952 211.679 522.985 212.625C522.606 213.446 522.29 214.266 521.911 215.149C515.029 232.754 512.755 255.408 502.778 263.232C492.801 271.057 470.827 303.743 440.517 312.829C440.517 312.829 432.434 316.931 421.321 318.067C422.394 318.445 423.405 318.761 424.226 319.077C444.621 326.649 464.449 363.121 470.953 384.638C477.457 406.156 484.403 430.828 481.751 444.963C475.5 478.406 457.251 492.225 446.453 496.706C445.695 497.021 444.748 497.273 443.674 497.463C438.244 505.729 432.687 514.815 428.077 524.912C412.038 559.806 401.367 562.961 390.695 577.222C380.024 591.483 328.371 678.689 328.371 678.689C306.965 650.23 278.486 482.445 278.486 482.445C278.486 482.445 278.486 575.455 287.39 630.606C296.293 685.819 314.1 735.669 314.1 735.669C246.408 705.38 200.06 580.819 200.06 580.819C200.06 580.819 209.152 642.406 244.514 706.768C276.213 764.506 316.31 794.92 316.31 794.92C316.31 794.92 299.64 837.829 262.384 839.659C225.128 841.489 124.475 830.446 124.475 830.446C124.475 830.446 133.441 835.116 183.705 851.396C234.032 867.676 286.19 844.896 299.261 852.342C312.332 859.788 322.94 921.627 324.645 958.857C326.287 996.086 309.932 1010.98 309.932 1010.98L278.234 988.64C246.535 966.302 167.666 916.326 167.666 916.326C167.666 916.326 223.044 980.879 262.889 1016.66C288.526 1039.69 302.481 1064.99 302.481 1064.99C302.481 1064.99 308.164 1130.93 306.333 1169.93C304.755 1202.43 307.975 1216.56 299.261 1239.91C291.557 1243.95 281.959 1247.35 271.224 1250.13L275.645 1304.4C275.645 1304.4 310.69 1328.06 324.203 1397.09C335.822 1456.22 372.446 1487.33 380.971 1520.9C381.729 1517.8 383.181 1516.92 385.959 1523.42C392.4 1538.38 390.253 1556.23 389.496 1586.9C388.738 1617.57 394.484 1629.68 400.735 1653.22C406.987 1676.76 405.156 1693.16 400.735 1719.54C396.315 1745.91 382.992 1768.38 360.196 1769.77C337.401 1771.15 322.435 1765.85 309.554 1753.74C296.672 1741.62 299.577 1720.23 299.261 1698.84C298.945 1677.45 309.554 1663.19 302.418 1638.26C295.283 1613.34 303.239 1599.9 303.239 1599.9C303.239 1599.9 327.929 1597.5 346.557 1586.77C360.322 1578.82 365.879 1570.62 369.415 1561.6C352.998 1573.46 326.982 1574.78 326.982 1574.78C315.426 1545.38 265.668 1495.66 265.668 1495.66C301.408 1513.2 331.149 1527.21 331.149 1527.21C314.353 1497.55 272.677 1471.43 242.935 1438.49C213.194 1405.55 191.282 1363.96 157.373 1309.51C154.911 1305.53 151.438 1292.72 148.47 1276.63C152.764 1277.2 157.752 1277.58 163.814 1277.71C209.152 1278.65 230.432 1272.4 230.432 1272.4C193.303 1269.25 172.276 1266.03 144.744 1252.15C144.744 1252.15 144.744 1252.15 144.744 1252.09C140.261 1250.89 135.841 1249.56 131.799 1248.05C124.98 1222.18 120.623 1181.16 118.413 1155.42C121.949 1160.27 131.231 1171.44 150.364 1185.51C153.332 1187.66 156.426 1189.87 159.836 1192.2C196.839 1216.88 230.938 1222.49 236.052 1223.25C236.558 1223.38 236.81 1223.38 236.81 1223.38C236.81 1223.38 236.494 1223.38 236.052 1223.25C232.895 1222.62 218.119 1217.57 169.623 1179.02C168.424 1178.07 167.413 1177.25 166.15 1176.3C120.307 1139.58 120.307 1077.36 120.307 1077.36C120.307 1077.36 113.614 1108.34 115.95 1145.38C114.813 1172.89 115.129 1175.36 102.058 1217.76C99.469 1226.21 99.911 1239.59 97.5746 1248.93C90.8812 1249.88 81.7883 1250.26 71.3693 1250.19C70.6116 1261.49 65.181 1275.12 66.3808 1290.39C67.5174 1304.71 77.2418 1320.42 78.3785 1336.89C81.0306 1374.06 83.1776 1415.39 82.7355 1453.76C81.9146 1530.05 76.6104 1629.43 83.9984 1692.15C101.995 1690.13 114.056 1701.93 119.486 1707.42C125.927 1713.92 153.332 1723.77 179.032 1738.66C198.607 1750.02 205.932 1762.95 204.606 1770.14H769.631L527.973 1814L-136 1770.14H17.2537H17.1906Z" fill="#F2F2F2"/>
<path d="M431.74 188.962C431.74 188.962 438.433 186.312 442.601 184.356C446.768 182.337 452.073 181.58 452.073 181.58C447.842 177.415 436.223 174.134 436.223 174.134C436.223 174.134 440.264 170.474 454.346 174.386C468.427 178.298 472.911 186.123 474.994 190.982C474.994 190.982 474.805 193.695 466.912 199.374C459.461 204.738 451.883 204.17 451.883 204.17C453.714 202.466 456.051 198.932 456.051 198.932C456.051 198.932 454.093 197.986 447.147 196.219C440.201 194.452 431.803 189.026 431.803 189.026L431.74 188.962Z" fill="#F2F2F2"/>
</svg>
