<svg width="206" height="95" viewBox="0 0 206 95" fill="none" xmlns="http://www.w3.org/2000/svg">
<g clip-path="url(#clip0_1_242)">
<path fill-rule="evenodd" clip-rule="evenodd" d="M20.4342 26.3151C21.7664 24.3431 24.2933 23.1969 26.9577 23.1969C31.4137 23.1969 33.6189 26.3606 33.6189 30.8096V51.5828H31.0465L30.3111 50.0237C28.9324 51.1698 27.0954 51.9494 25.1662 51.9494C22.0881 51.9494 19.2404 50.0237 19.2404 44.7042C19.2404 40.5772 20.9399 38.0093 25.0286 34.9366C26.3609 33.9733 28.0148 32.8726 29.7607 31.772V30.9006C29.7607 28.5619 28.6581 26.9573 26.4073 26.9573C24.8454 26.9573 23.4668 27.7824 22.6858 29.1122L20.435 26.3151H20.4342ZM29.7598 46.4925V35.7161C28.6572 36.4038 27.8298 36.9541 27.0498 37.5508C24.1557 39.7976 23.3283 41.7697 23.3283 44.1084C23.3283 46.9518 24.5229 48.098 26.36 48.098C27.6467 48.098 28.7492 47.5022 29.7598 46.4934V46.4925Z" fill="#007126"/>
<path fill-rule="evenodd" clip-rule="evenodd" d="M41.8419 15.1472V51.5828H37.7532V15.2176L41.8419 15.1472Z" fill="#007126"/>
<path fill-rule="evenodd" clip-rule="evenodd" d="M60.034 23.5635L53.6024 35.0284L60.5852 51.5828H56.3589L50.157 36.4957V51.5828H46.0683V15.2176L50.157 15.1472V33.9733L55.8532 23.5635H60.034Z" fill="#007126"/>
<path fill-rule="evenodd" clip-rule="evenodd" d="M28.8619 95C26.1605 95 23.9217 94.211 22.1466 92.6313C20.2166 90.7047 19.2525 88.1815 19.2525 85.0607V63.5637C19.2525 60.4429 20.2166 57.9205 22.1466 55.994C23.9209 54.4151 26.1596 53.6244 28.8619 53.6244C31.6408 53.6244 33.8786 54.4142 35.5773 55.994C37.5064 57.8433 38.4722 60.3665 38.4722 63.5637V67.1464H32.1043V63.5637C32.1043 62.1385 31.8343 61.1752 31.2942 60.6747C30.7919 60.2128 29.9817 59.981 28.8628 59.981C27.7438 59.981 26.9904 60.212 26.489 60.6747C25.9102 61.2147 25.6203 62.1772 25.6203 63.5637V85.0607C25.6203 86.4481 25.9102 87.4114 26.489 87.9505C26.9904 88.4124 27.7817 88.6434 28.8628 88.6434C29.9439 88.6434 30.7919 88.4124 31.2942 87.9505C31.8343 87.45 32.1043 86.4867 32.1043 85.0607V77.4909H28.9204V71.1343H38.4722V85.0607C38.4722 88.2587 37.5072 90.782 35.5773 92.6313C33.8786 94.211 31.6408 95 28.8619 95Z" fill="#003575"/>
<path fill-rule="evenodd" clip-rule="evenodd" d="M51.38 95C48.6012 95 46.3624 94.211 44.6647 92.6313C42.7347 90.782 41.7706 88.2587 41.7706 85.0607V63.5637C41.7706 60.3665 42.7347 57.8433 44.6647 55.994C46.3624 54.4151 48.6012 53.6244 51.38 53.6244C54.1589 53.6244 56.3968 54.4142 58.0954 55.994C60.0245 57.8433 60.9903 60.3665 60.9903 63.5637V85.0607C60.9903 88.2587 60.0253 90.782 58.0954 92.6313C56.3968 94.211 54.1589 95 51.38 95ZM51.38 59.981C50.2989 59.981 49.5077 60.212 49.0062 60.6747C48.4274 61.2147 48.1376 62.1772 48.1376 63.5637V85.0607C48.1376 86.4481 48.4274 87.4114 49.0062 87.9505C49.5077 88.4124 50.2989 88.6434 51.38 88.6434C52.4611 88.6434 53.2902 88.4124 53.7538 87.9505C54.3326 87.45 54.6224 86.4867 54.6224 85.0607V63.5637C54.6224 62.1385 54.3326 61.1752 53.7538 60.6747C53.2911 60.2128 52.499 59.981 51.38 59.981Z" fill="#003575"/>
<path fill-rule="evenodd" clip-rule="evenodd" d="M81.4245 94.5381H64.6361V54.0872H71.004V88.1815H81.4245V94.5381Z" fill="#003575"/>
<path fill-rule="evenodd" clip-rule="evenodd" d="M90.3967 60.4438V70.614H97.6324V76.9707H90.3967V94.5381H84.0288V54.0872H100.816V60.4438H90.3967Z" fill="#003575"/>
<path fill-rule="evenodd" clip-rule="evenodd" d="M120.673 95C117.894 95 115.655 94.211 113.957 92.6313C112.026 90.782 111.062 88.2587 111.062 85.0607V79.8021H117.43V85.0607C117.43 86.4481 117.72 87.4114 118.299 87.9505C118.8 88.4124 119.591 88.6434 120.673 88.6434C121.754 88.6434 122.583 88.4124 123.045 87.9505C123.624 87.45 123.914 86.4867 123.914 85.0607V82.5185C123.914 80.7474 123.199 79.2054 121.772 77.8953C121.463 77.6266 120.652 77.1252 119.34 76.3929C117.526 75.4304 116.195 74.5822 115.346 73.8507C113.957 72.6179 112.895 71.2124 112.162 69.6319C111.429 68.0521 111.062 66.3574 111.062 64.5467V63.5646C111.062 60.3674 112.026 57.8441 113.957 55.9948C115.655 54.416 117.894 53.6252 120.673 53.6252C123.451 53.6252 125.688 54.4151 127.387 55.9948C129.317 57.8441 130.282 60.3674 130.282 63.5646V67.0897H123.914V63.5646C123.914 62.1394 123.624 61.1761 123.045 60.6756C122.583 60.2137 121.791 59.9819 120.673 59.9819C119.554 59.9819 118.8 60.2128 118.299 60.6756C117.72 61.2156 117.43 62.178 117.43 63.5646V64.5467C117.43 66.3188 118.144 67.8409 119.573 69.1116C119.958 69.4207 120.71 69.8826 121.83 70.499C123.836 71.5782 125.226 72.4633 125.998 73.157C128.853 75.6992 130.282 78.82 130.282 82.5185V85.0607C130.282 88.2587 129.317 90.782 127.387 92.6313C125.688 94.211 123.451 95 120.673 95Z" fill="#003575"/>
<path fill-rule="evenodd" clip-rule="evenodd" d="M152.742 54.0872V94.5381H146.375V76.9707H139.891V94.5381H133.523V54.0872H139.891V70.614H146.375V54.0872H152.742Z" fill="#003575"/>
<path fill-rule="evenodd" clip-rule="evenodd" d="M165.999 95C163.22 95 160.981 94.211 159.283 92.6313C157.352 90.782 156.389 88.2587 156.389 85.0607V63.5637C156.389 60.3665 157.352 57.8433 159.283 55.994C160.981 54.4151 163.22 53.6244 165.999 53.6244C168.777 53.6244 171.014 54.4142 172.713 55.994C174.643 57.8433 175.608 60.3665 175.608 63.5637V85.0607C175.608 88.2587 174.643 90.782 172.713 92.6313C171.014 94.211 168.777 95 165.999 95ZM165.999 59.981C164.917 59.981 164.126 60.212 163.625 60.6747C163.046 61.2147 162.756 62.1772 162.756 63.5637V85.0607C162.756 86.4481 163.046 87.4114 163.625 87.9505C164.126 88.4124 164.917 88.6434 165.999 88.6434C167.08 88.6434 167.909 88.4124 168.372 87.9505C168.95 87.45 169.24 86.4867 169.24 85.0607V63.5637C169.24 62.1385 168.95 61.1752 168.372 60.6747C167.909 60.2128 167.118 59.981 165.999 59.981Z" fill="#003575"/>
<path fill-rule="evenodd" clip-rule="evenodd" d="M206 54.0872L201.021 94.5381H197.49L191.817 74.4277L186.201 94.5381H182.67L177.692 54.0872H184.117L186.318 74.2551L190.023 60.5013H193.669L197.374 74.2551L199.575 54.0872H206Z" fill="#003575"/>
<path fill-rule="evenodd" clip-rule="evenodd" d="M26.6008 12.395C26.3763 11.6172 25.8448 10.9724 25.1026 10.5809L5.74004 0.36517C4.2745 -0.407516 2.43225 0.0835688 1.63325 1.46152C1.25053 2.1226 1.15592 2.89185 1.36836 3.62934C1.59283 4.40717 2.12435 5.05194 2.86658 5.44343L17.7792 13.3111L14.9814 18.1369C14.6787 18.1284 14.3854 18.2073 14.1308 18.3679C13.7936 18.5799 13.558 18.9225 13.484 19.3071L12.7745 22.9928C12.6902 23.4298 12.8166 23.8643 13.0944 24.1905L0.0361217 92.0143C-0.0722459 92.5758 0.0576232 93.1458 0.401647 93.618C0.733631 94.0756 1.22903 94.3873 1.79667 94.4955C1.94202 94.5238 2.08737 94.5375 2.23186 94.5375C2.65157 94.5375 3.06181 94.4208 3.41788 94.1967C3.91241 93.885 4.24526 93.4043 4.35277 92.8419L17.4111 25.0181C17.7903 24.8181 18.069 24.4609 18.1524 24.0239L18.862 20.3382C18.9196 20.0412 18.8766 19.7381 18.751 19.4703L21.2581 15.1466L22.2291 15.6592C23.6947 16.4327 25.5369 15.9408 26.3359 14.5637C26.7195 13.9026 26.8132 13.1325 26.6008 12.3959" fill="#007126"/>
</g>
<defs>
<clipPath id="clip0_1_242">
<rect width="206" height="95" fill="white"/>
</clipPath>
</defs>
</svg>
