<svg width="21" height="20" viewBox="0 0 21 20" fill="none" xmlns="http://www.w3.org/2000/svg">
<path d="M13.45 14.5198L10.44 11.5098C10.33 11.3998 10.2 11.3798 10.13 11.3798C10.06 11.3798 9.92998 11.3998 9.81998 11.5098L6.79998 14.5298C6.45999 14.8698 5.92998 15.4198 4.15998 15.4198L7.86998 19.1198C8.43249 19.6816 9.19498 19.9972 9.98998 19.9972C10.785 19.9972 11.5475 19.6816 12.11 19.1198L15.83 15.4098C14.92 15.4098 14.16 15.2298 13.45 14.5198ZM6.79998 5.4698L9.81998 8.4898C9.89998 8.5698 10.02 8.6198 10.13 8.6198C10.24 8.6198 10.36 8.5698 10.44 8.4898L13.43 5.4998C14.14 4.7598 14.95 4.5898 15.86 4.5898L12.14 0.879802C11.5775 0.318 10.815 0.00244141 10.02 0.00244141C9.22498 0.00244141 8.46249 0.318 7.89998 0.879802L4.18998 4.5798C5.94998 4.5798 6.48998 5.1598 6.79998 5.4698Z" fill="#252729"/>
<path d="M19.11 7.8498L16.86 5.5898H15.6C15.06 5.5898 14.52 5.8098 14.15 6.1998L11.15 9.1998C10.87 9.4798 10.5 9.6198 10.13 9.6198C9.74898 9.61444 9.3843 9.46427 9.10998 9.1998L6.08998 6.1698C5.70998 5.7898 5.18998 5.5698 4.63998 5.5698H3.16998L0.879985 7.8698C0.318183 8.4323 0.00262451 9.1948 0.00262451 9.9898C0.00262451 10.7848 0.318183 11.5473 0.879985 12.1098L3.16998 14.4098H4.64998C5.18998 14.4098 5.70999 14.1898 6.09999 13.8098L9.11998 10.7898C9.39998 10.5098 9.76999 10.3698 10.14 10.3698C10.51 10.3698 10.88 10.5098 11.16 10.7898L14.17 13.7998C14.55 14.1798 15.07 14.3998 15.62 14.3998H16.88L19.13 12.1398C19.6941 11.5672 20.0087 10.7945 20.005 9.99068C20.0012 9.18683 19.6795 8.41714 19.11 7.8498Z" fill="#252729"/>
</svg>
