<svg width="67" height="68" viewBox="0 0 67 68" fill="none" xmlns="http://www.w3.org/2000/svg">
<path d="M23.375 28.4375L30.125 35.1875L45.3125 20M16.625 53.75V61.6323C16.625 63.4307 16.625 64.3299 16.9936 64.7917C17.3143 65.1933 17.8004 65.427 18.3143 65.4264C18.9052 65.4258 19.6074 64.8641 21.0117 63.7407L29.0626 57.2999C30.7072 55.9842 31.5296 55.3263 32.4453 54.8585C33.2577 54.4435 34.1224 54.1401 35.0161 53.9567C36.0234 53.75 37.0765 53.75 39.1827 53.75H47.675C53.3455 53.75 56.1808 53.75 58.3467 52.6464C60.2518 51.6757 61.8007 50.1268 62.7714 48.2217C63.875 46.0558 63.875 43.2205 63.875 37.55V19.325C63.875 13.6545 63.875 10.8192 62.7714 8.65335C61.8007 6.7482 60.2518 5.19928 58.3467 4.22856C56.1808 3.125 53.3455 3.125 47.675 3.125H19.325C13.6545 3.125 10.8192 3.125 8.65335 4.22856C6.74821 5.19928 5.19928 6.7482 4.22856 8.65335C3.125 10.8192 3.125 13.6545 3.125 19.325V40.25C3.125 43.3887 3.125 44.958 3.47 46.2455C4.40623 49.7396 7.1354 52.4688 10.6295 53.405C11.917 53.75 13.4863 53.75 16.625 53.75Z" stroke="#0054BC" stroke-width="5" stroke-linecap="round" stroke-linejoin="round"/>
</svg>
